<svg id="visual" viewBox="0 0 900 600" width="900" height="600" xmlns="http://www.w3.org/2000/svg" xmlns:xlink="http://www.w3.org/1999/xlink" version="1.1"><rect x="0" y="0" width="900" height="600" fill="#fff"></rect><defs><linearGradient id="grad1_0" x1="33.3%" y1="0%" x2="100%" y2="100%"><stop offset="20%" stop-color="#fffeea" stop-opacity="1"></stop><stop offset="80%" stop-color="#fffeea" stop-opacity="1"></stop></linearGradient></defs><defs><linearGradient id="grad2_0" x1="0%" y1="0%" x2="66.7%" y2="100%"><stop offset="20%" stop-color="#fffeea" stop-opacity="1"></stop><stop offset="80%" stop-color="#fffeea" stop-opacity="1"></stop></linearGradient></defs><g transform="translate(900, 0)"><path d="M0 297.5C-25.7 257.2 -51.3 217 -84.2 203.3C-117 189.5 -157.1 202.3 -192.3 192.3C-227.6 182.4 -258.1 149.7 -274.8 113.8C-291.5 78 -294.5 39 -297.5 0L0 0Z" fill="#004052"></path></g><g transform="translate(0, 600)"><path d="M0 -297.5C44.2 -296.6 88.3 -295.7 111.7 -269.8C135.2 -243.8 137.8 -192.8 166.2 -166.2C194.5 -139.6 248.6 -137.5 274.8 -113.8C301 -90.2 299.2 -45.1 297.5 0L0 0Z" fill="#004052"></path></g></svg>