<svg id="visual" viewBox="0 0 960 540" width="960" height="540" xmlns="http://www.w3.org/2000/svg" xmlns:xlink="http://www.w3.org/1999/xlink" version="1.1"><rect x="0" y="0" width="960" height="540" fill="#ffffff"></rect><path d="M0 392L22.8 381.8C45.7 371.7 91.3 351.3 137 344.2C182.7 337 228.3 343 274 350C319.7 357 365.3 365 411.2 360.8C457 356.7 503 340.3 548.8 333C594.7 325.7 640.3 327.3 686 338.3C731.7 349.3 777.3 369.7 823 378C868.7 386.3 914.3 382.7 937.2 380.8L960 379L960 541L937.2 541C914.3 541 868.7 541 823 541C777.3 541 731.7 541 686 541C640.3 541 594.7 541 548.8 541C503 541 457 541 411.2 541C365.3 541 319.7 541 274 541C228.3 541 182.7 541 137 541C91.3 541 45.7 541 22.8 541L0 541Z" fill="#843b8c"></path><path d="M0 385L22.8 385.3C45.7 385.7 91.3 386.3 137 387.8C182.7 389.3 228.3 391.7 274 398.3C319.7 405 365.3 416 411.2 420.2C457 424.3 503 421.7 548.8 410.7C594.7 399.7 640.3 380.3 686 370.8C731.7 361.3 777.3 361.7 823 363.3C868.7 365 914.3 368 937.2 369.5L960 371L960 541L937.2 541C914.3 541 868.7 541 823 541C777.3 541 731.7 541 686 541C640.3 541 594.7 541 548.8 541C503 541 457 541 411.2 541C365.3 541 319.7 541 274 541C228.3 541 182.7 541 137 541C91.3 541 45.7 541 22.8 541L0 541Z" fill="#8b4494"></path><path d="M0 415L22.8 417.7C45.7 420.3 91.3 425.7 137 428.7C182.7 431.7 228.3 432.3 274 428.7C319.7 425 365.3 417 411.2 420.5C457 424 503 439 548.8 447C594.7 455 640.3 456 686 447.8C731.7 439.7 777.3 422.3 823 412.2C868.7 402 914.3 399 937.2 397.5L960 396L960 541L937.2 541C914.3 541 868.7 541 823 541C777.3 541 731.7 541 686 541C640.3 541 594.7 541 548.8 541C503 541 457 541 411.2 541C365.3 541 319.7 541 274 541C228.3 541 182.7 541 137 541C91.3 541 45.7 541 22.8 541L0 541Z" fill="#934c9c"></path><path d="M0 464L22.8 463.5C45.7 463 91.3 462 137 458C182.7 454 228.3 447 274 450.3C319.7 453.7 365.3 467.3 411.2 472.7C457 478 503 475 548.8 469.7C594.7 464.3 640.3 456.7 686 457.8C731.7 459 777.3 469 823 466.3C868.7 463.7 914.3 448.3 937.2 440.7L960 433L960 541L937.2 541C914.3 541 868.7 541 823 541C777.3 541 731.7 541 686 541C640.3 541 594.7 541 548.8 541C503 541 457 541 411.2 541C365.3 541 319.7 541 274 541C228.3 541 182.7 541 137 541C91.3 541 45.7 541 22.8 541L0 541Z" fill="#9b54a4"></path><path d="M0 512L22.8 512.7C45.7 513.3 91.3 514.7 137 508.2C182.7 501.7 228.3 487.3 274 485C319.7 482.7 365.3 492.3 411.2 496.3C457 500.3 503 498.7 548.8 494.7C594.7 490.7 640.3 484.3 686 486.3C731.7 488.3 777.3 498.7 823 497.7C868.7 496.7 914.3 484.3 937.2 478.2L960 472L960 541L937.2 541C914.3 541 868.7 541 823 541C777.3 541 731.7 541 686 541C640.3 541 594.7 541 548.8 541C503 541 457 541 411.2 541C365.3 541 319.7 541 274 541C228.3 541 182.7 541 137 541C91.3 541 45.7 541 22.8 541L0 541Z" fill="#a35cac"></path></svg>