<svg id="visual" viewBox="0 0 900 600" width="900" height="600" xmlns="http://www.w3.org/2000/svg" xmlns:xlink="http://www.w3.org/1999/xlink" version="1.1"><rect x="0" y="0" width="900" height="600" fill="#FFFFFF"></rect><path d="M0 318L18.8 310.8C37.7 303.7 75.3 289.3 112.8 290C150.3 290.7 187.7 306.3 225.2 321.7C262.7 337 300.3 352 337.8 357.8C375.3 363.7 412.7 360.3 450.2 350.2C487.7 340 525.3 323 562.8 315.2C600.3 307.3 637.7 308.7 675.2 301.7C712.7 294.7 750.3 279.3 787.8 283.8C825.3 288.3 862.7 312.7 881.3 324.8L900 337L900 601L881.3 601C862.7 601 825.3 601 787.8 601C750.3 601 712.7 601 675.2 601C637.7 601 600.3 601 562.8 601C525.3 601 487.7 601 450.2 601C412.7 601 375.3 601 337.8 601C300.3 601 262.7 601 225.2 601C187.7 601 150.3 601 112.8 601C75.3 601 37.7 601 18.8 601L0 601Z" fill="#69faf1"></path><path d="M0 422L18.8 419.5C37.7 417 75.3 412 112.8 413.5C150.3 415 187.7 423 225.2 411.5C262.7 400 300.3 369 337.8 353.2C375.3 337.3 412.7 336.7 450.2 338.3C487.7 340 525.3 344 562.8 354.5C600.3 365 637.7 382 675.2 394C712.7 406 750.3 413 787.8 415.7C825.3 418.3 862.7 416.7 881.3 415.8L900 415L900 601L881.3 601C862.7 601 825.3 601 787.8 601C750.3 601 712.7 601 675.2 601C637.7 601 600.3 601 562.8 601C525.3 601 487.7 601 450.2 601C412.7 601 375.3 601 337.8 601C300.3 601 262.7 601 225.2 601C187.7 601 150.3 601 112.8 601C75.3 601 37.7 601 18.8 601L0 601Z" fill="#00cafb"></path><path d="M0 412L18.8 410.7C37.7 409.3 75.3 406.7 112.8 415.8C150.3 425 187.7 446 225.2 444.8C262.7 443.7 300.3 420.3 337.8 416.3C375.3 412.3 412.7 427.7 450.2 443.3C487.7 459 525.3 475 562.8 475.8C600.3 476.7 637.7 462.3 675.2 458.2C712.7 454 750.3 460 787.8 465.5C825.3 471 862.7 476 881.3 478.5L900 481L900 601L881.3 601C862.7 601 825.3 601 787.8 601C750.3 601 712.7 601 675.2 601C637.7 601 600.3 601 562.8 601C525.3 601 487.7 601 450.2 601C412.7 601 375.3 601 337.8 601C300.3 601 262.7 601 225.2 601C187.7 601 150.3 601 112.8 601C75.3 601 37.7 601 18.8 601L0 601Z" fill="#0091ec"></path><path d="M0 556L18.8 554.7C37.7 553.3 75.3 550.7 112.8 545.5C150.3 540.3 187.7 532.7 225.2 529.7C262.7 526.7 300.3 528.3 337.8 532C375.3 535.7 412.7 541.3 450.2 536.3C487.7 531.3 525.3 515.7 562.8 503.7C600.3 491.7 637.7 483.3 675.2 485.5C712.7 487.7 750.3 500.3 787.8 512.7C825.3 525 862.7 537 881.3 543L900 549L900 601L881.3 601C862.7 601 825.3 601 787.8 601C750.3 601 712.7 601 675.2 601C637.7 601 600.3 601 562.8 601C525.3 601 487.7 601 450.2 601C412.7 601 375.3 601 337.8 601C300.3 601 262.7 601 225.2 601C187.7 601 150.3 601 112.8 601C75.3 601 37.7 601 18.8 601L0 601Z" fill="#2450c7"></path></svg>